<svg id="Layer_1" data-name="Layer 1" xmlns="http://www.w3.org/2000/svg" viewBox="0 0 96 96"><defs><style>.cls-1{fill:#fff;}.cls-2{fill:none;}.cls-3{fill:#229022;}.cls-4{fill:#0a7533;}.cls-5{fill:#030;opacity:0.5;isolation:isolate;}.cls-6{fill:#0cb04a;}</style></defs><title>Invinsense-icon-96x96</title><circle class="cls-1" cx="47.47" cy="73.23" r="17.33"/><polygon class="cls-2" points="48.05 15.77 36.09 0 48.05 15.84 48.05 15.77"/><polygon class="cls-3" points="48.05 15.84 36.09 0 13.3 0 48.05 46.27 59.48 30.85 48.05 15.77 48.05 15.84"/><polygon class="cls-4" points="59.82 0 48.05 15.77 59.48 30.85 82.7 0 59.82 0"/><polygon class="cls-5" points="49.91 13.31 48.05 15.77 59.48 30.85 61.69 27.96 49.91 13.31"/><path class="cls-6" d="M48.05,61.46a3.8,3.8,0,0,0-3.81,3.79V69h7.62V65.27a3.8,3.8,0,0,0-3.79-3.81Z"/><path class="cls-6" d="M48.05,46.34A24.83,24.83,0,1,0,72.88,71.17,24.83,24.83,0,0,0,48.05,46.34ZM58.81,81.6A2.82,2.82,0,0,1,56,84.39H40.08a2.8,2.8,0,0,1-2.79-2.79V72a2.83,2.83,0,0,1,2.79-2.81h.42V65.5a7.59,7.59,0,1,1,15.17,0v3.72h.42a2.72,2.72,0,0,1,2.8,2.64V72Z"/><path class="cls-6" d="M45.33,74.14a.34.34,0,0,1-.09-.25.52.52,0,0,1,.26-.35l1.62-1.35a1.81,1.81,0,0,1,.93-.34H49a.64.64,0,0,1,.42.18.6.6,0,0,1,.18.42v8.13a.64.64,0,0,1-.18.42c-.17.09-.26.18-.42.18H47.74a.62.62,0,0,1-.6-.6V74.23l-.75.59c-.09.09-.18.09-.34.09s-.17-.09-.26-.18Z"/></svg>